<svg id="svg" version="1.1" xmlns="http://www.w3.org/2000/svg" xmlns:xlink="http://www.w3.org/1999/xlink" width="400" height="400" viewBox="0, 0, 400,400"><g id="svgg"><path id="path0" d="M115.050 164.050 C 114.913 164.738,114.807 170.453,114.816 176.750 L 114.832 188.200 121.282 191.800 C 124.830 193.780,128.509 195.889,129.459 196.486 L 131.185 197.573 131.292 206.626 L 131.400 215.679 133.200 216.696 C 134.190 217.255,135.540 218.025,136.200 218.407 C 136.860 218.789,139.650 220.399,142.400 221.986 C 145.150 223.572,147.580 225.009,147.800 225.178 C 148.331 225.586,152.801 228.000,153.025 228.000 C 153.121 228.000,153.200 218.010,153.200 205.800 C 153.200 186.066,153.132 183.600,152.583 183.600 C 152.244 183.600,151.580 183.240,151.108 182.800 C 150.636 182.360,150.013 182.000,149.725 182.000 C 149.436 182.000,149.200 181.820,149.200 181.600 C 149.200 181.380,148.840 181.200,148.400 181.200 C 147.960 181.200,147.600 181.020,147.600 180.800 C 147.600 180.580,147.322 180.400,146.983 180.400 C 146.644 180.400,145.980 180.040,145.508 179.600 C 145.036 179.160,144.413 178.800,144.125 178.800 C 143.836 178.800,143.600 178.620,143.600 178.400 C 143.600 178.180,143.240 178.000,142.800 178.000 C 142.360 178.000,142.000 177.820,142.000 177.600 C 142.000 177.380,141.722 177.200,141.383 177.200 C 141.044 177.200,140.380 176.840,139.908 176.400 C 139.436 175.960,138.813 175.600,138.525 175.600 C 138.236 175.600,138.000 175.420,138.000 175.200 C 138.000 174.980,137.640 174.800,137.200 174.800 C 136.760 174.800,136.400 174.620,136.400 174.400 C 136.400 174.180,136.122 174.000,135.783 174.000 C 135.444 174.000,134.780 173.640,134.308 173.200 C 133.836 172.760,133.213 172.400,132.925 172.400 C 132.636 172.400,132.400 172.220,132.400 172.000 C 132.400 171.780,132.055 171.600,131.633 171.600 C 131.212 171.600,130.807 171.465,130.733 171.300 C 130.566 170.924,128.436 169.625,127.500 169.329 C 127.115 169.207,126.800 168.948,126.800 168.753 C 126.800 168.559,126.440 168.400,126.000 168.400 C 125.560 168.400,125.200 168.241,125.200 168.047 C 125.200 167.852,124.885 167.593,124.500 167.471 C 123.564 167.175,121.434 165.876,121.267 165.500 C 121.193 165.335,120.788 165.200,120.367 165.200 C 119.945 165.200,119.600 165.020,119.600 164.800 C 119.600 164.580,119.375 164.396,119.100 164.391 C 118.825 164.386,118.150 164.030,117.600 163.600 C 116.131 162.451,115.342 162.590,115.050 164.050 M107.202 192.842 C 103.354 195.054,99.979 197.052,99.702 197.281 C 99.216 197.685,98.908 215.200,99.388 215.200 C 99.491 215.200,100.211 214.840,100.988 214.400 C 101.765 213.960,103.005 213.257,103.745 212.838 C 104.485 212.418,105.520 211.833,106.045 211.538 C 106.570 211.242,107.090 210.910,107.200 210.800 C 107.310 210.690,107.830 210.358,108.355 210.062 C 108.880 209.767,109.926 209.178,110.680 208.755 C 112.854 207.534,114.176 206.651,114.494 206.209 C 114.882 205.669,114.888 188.797,114.500 188.810 C 114.335 188.816,111.051 190.630,107.202 192.842 " stroke="none" fill="#545454" fill-rule="evenodd"></path><path id="path1" d="M115.453 189.481 C 114.446 190.487,115.347 207.200,116.407 207.200 C 116.615 207.200,117.962 207.920,119.400 208.800 C 120.838 209.680,122.113 210.400,122.235 210.400 C 122.356 210.400,123.208 210.901,124.128 211.514 C 127.443 213.722,129.989 214.895,130.211 214.316 C 130.324 214.020,130.368 210.112,130.309 205.632 L 130.200 197.485 124.600 194.311 C 121.520 192.565,118.259 190.707,117.353 190.182 C 116.447 189.657,115.592 189.342,115.453 189.481 M96.600 217.036 C 95.720 217.576,94.730 218.139,94.400 218.289 C 94.070 218.438,92.392 219.425,90.671 220.480 C 88.949 221.536,87.461 222.400,87.363 222.400 C 87.266 222.400,86.000 223.120,84.552 224.000 C 83.103 224.880,81.834 225.600,81.731 225.600 C 81.628 225.600,80.759 226.140,79.800 226.800 C 78.841 227.460,77.863 228.000,77.628 228.000 C 77.393 228.000,77.200 228.193,77.200 228.429 C 77.200 228.990,78.221 230.000,78.788 230.000 C 79.033 230.000,79.620 230.360,80.092 230.800 C 80.564 231.240,81.187 231.600,81.475 231.600 C 81.764 231.600,82.000 231.780,82.000 232.000 C 82.000 232.220,82.360 232.400,82.800 232.400 C 83.240 232.400,83.600 232.559,83.600 232.753 C 83.600 232.948,83.915 233.207,84.300 233.329 C 85.236 233.625,87.366 234.924,87.533 235.300 C 87.607 235.465,88.012 235.600,88.433 235.600 C 88.855 235.600,89.200 235.759,89.200 235.953 C 89.200 236.148,89.515 236.407,89.900 236.529 C 90.836 236.825,92.966 238.124,93.133 238.500 C 93.207 238.665,93.612 238.800,94.033 238.800 C 94.455 238.800,94.800 238.980,94.800 239.200 C 94.800 239.420,95.036 239.600,95.325 239.600 C 95.613 239.600,96.236 239.960,96.708 240.400 C 97.180 240.840,97.844 241.200,98.183 241.200 C 98.522 241.200,98.800 241.380,98.800 241.600 C 98.800 241.820,99.160 242.000,99.600 242.000 C 100.040 242.000,100.400 242.180,100.400 242.400 C 100.400 242.620,100.636 242.800,100.925 242.800 C 101.213 242.800,101.836 243.160,102.308 243.600 C 102.780 244.040,103.444 244.400,103.783 244.400 C 104.122 244.400,104.400 244.580,104.400 244.800 C 104.400 245.020,104.678 245.200,105.017 245.200 C 105.356 245.200,106.020 245.560,106.492 246.000 C 106.964 246.440,107.587 246.800,107.875 246.800 C 108.164 246.800,108.400 246.980,108.400 247.200 C 108.400 247.420,108.760 247.600,109.200 247.600 C 109.640 247.600,110.000 247.780,110.000 248.000 C 110.000 248.220,110.278 248.400,110.617 248.400 C 110.956 248.400,111.620 248.760,112.092 249.200 C 113.015 250.059,117.200 250.387,117.200 249.600 C 117.200 249.380,117.560 249.200,118.000 249.200 C 118.440 249.200,118.800 249.020,118.800 248.800 C 118.800 248.580,119.036 248.400,119.325 248.400 C 119.613 248.400,120.236 248.040,120.708 247.600 C 121.180 247.160,121.844 246.800,122.183 246.800 C 122.522 246.800,122.800 246.620,122.800 246.400 C 122.800 246.180,123.160 246.000,123.600 246.000 C 124.040 246.000,124.400 245.820,124.400 245.600 C 124.400 245.380,124.636 245.200,124.925 245.200 C 125.213 245.200,125.836 244.840,126.308 244.400 C 126.780 243.960,127.444 243.600,127.783 243.600 C 128.122 243.600,128.400 243.420,128.400 243.200 C 128.400 242.980,128.678 242.800,129.017 242.800 C 129.356 242.800,130.020 242.440,130.492 242.000 C 130.964 241.560,131.587 241.200,131.875 241.200 C 132.164 241.200,132.400 241.020,132.400 240.800 C 132.400 240.580,132.760 240.400,133.200 240.400 C 133.640 240.400,134.000 240.220,134.000 240.000 C 134.000 239.780,134.278 239.600,134.617 239.600 C 134.956 239.600,135.620 239.240,136.092 238.800 C 136.564 238.360,137.187 238.000,137.475 238.000 C 137.764 238.000,138.000 237.820,138.000 237.600 C 138.000 237.380,138.360 237.200,138.800 237.200 C 139.240 237.200,139.600 237.020,139.600 236.800 C 139.600 236.580,139.878 236.400,140.217 236.400 C 140.556 236.400,141.220 236.040,141.692 235.600 C 142.164 235.160,142.787 234.800,143.075 234.800 C 143.364 234.800,143.600 234.620,143.600 234.400 C 143.600 234.180,143.960 234.000,144.400 234.000 C 144.840 234.000,145.200 233.820,145.200 233.600 C 145.200 233.380,145.478 233.200,145.817 233.200 C 146.156 233.200,146.820 232.840,147.292 232.400 C 147.764 231.960,148.387 231.600,148.675 231.600 C 148.964 231.600,149.200 231.420,149.200 231.200 C 149.200 230.980,149.560 230.800,150.000 230.800 C 150.440 230.800,150.800 230.620,150.800 230.400 C 150.800 230.180,151.083 230.000,151.429 230.000 C 152.007 230.000,153.485 228.866,153.148 228.681 C 153.066 228.636,152.460 228.311,151.800 227.957 C 151.140 227.604,146.544 224.963,141.587 222.088 C 130.387 215.594,130.588 215.688,129.470 216.395 C 128.322 217.121,119.575 222.185,116.880 223.685 C 115.430 224.491,114.608 224.741,114.280 224.475 C 114.016 224.261,113.125 223.706,112.300 223.243 C 111.475 222.779,110.125 222.021,109.300 221.557 C 108.475 221.094,107.620 220.573,107.400 220.400 C 107.026 220.106,106.263 219.664,102.500 217.562 C 101.675 217.102,100.829 216.562,100.620 216.362 C 99.961 215.734,98.258 216.020,96.600 217.036 " stroke="none" fill="#fafbfb" fill-rule="evenodd"></path><path id="path2" d="M113.200 163.200 C 113.200 163.420,112.840 163.600,112.400 163.600 C 111.960 163.600,111.600 163.780,111.600 164.000 C 111.600 164.220,111.328 164.400,110.996 164.400 C 110.664 164.400,109.828 164.940,109.137 165.600 C 108.446 166.260,107.450 166.800,106.923 166.800 C 106.253 166.800,106.000 166.998,106.082 167.459 C 106.147 167.821,105.975 168.196,105.700 168.292 C 105.425 168.388,105.200 168.270,105.200 168.030 C 105.200 167.731,104.953 167.747,104.420 168.080 C 103.793 168.472,103.734 168.683,104.120 169.160 C 104.504 169.635,104.492 169.689,104.062 169.430 C 103.582 169.140,102.942 169.329,100.800 170.390 C 100.470 170.553,100.200 170.938,100.199 171.244 C 100.198 171.550,99.928 171.816,99.599 171.837 C 98.688 171.892,96.626 172.492,96.400 172.767 C 96.290 172.901,95.345 173.442,94.300 173.968 C 93.206 174.520,92.400 175.201,92.400 175.576 C 92.400 175.985,92.019 176.257,91.374 176.310 C 90.809 176.357,90.066 176.677,89.722 177.021 C 89.378 177.365,88.867 177.558,88.586 177.450 C 88.305 177.342,87.760 177.602,87.376 178.027 C 86.991 178.452,86.344 178.800,85.938 178.800 C 85.532 178.800,85.200 178.980,85.200 179.200 C 85.200 179.420,84.917 179.600,84.571 179.600 C 83.775 179.600,82.747 180.603,83.119 181.017 C 83.274 181.188,83.202 181.215,82.959 181.077 C 82.716 180.939,82.176 181.084,81.759 181.400 C 81.342 181.716,80.704 181.980,80.343 181.987 C 79.981 181.994,79.581 182.272,79.454 182.604 C 79.327 182.936,79.082 183.177,78.911 183.140 C 77.312 182.795,77.246 183.247,77.213 194.734 C 77.194 201.551,77.032 205.851,76.791 205.933 C 76.546 206.017,76.434 210.133,76.490 216.933 L 76.580 227.800 76.800 217.000 L 77.020 206.200 77.110 216.700 C 77.159 222.475,77.307 227.200,77.438 227.200 C 77.704 227.200,80.088 225.912,80.400 225.600 C 80.652 225.348,82.131 224.504,84.200 223.430 C 85.080 222.974,85.890 222.510,86.000 222.400 C 86.110 222.290,86.605 221.975,87.100 221.700 C 87.595 221.425,88.405 220.975,88.900 220.700 C 89.395 220.425,89.890 220.110,90.000 220.000 C 90.257 219.743,91.654 218.948,94.332 217.535 C 95.504 216.916,96.976 216.044,97.603 215.598 C 98.307 215.097,98.840 214.942,98.996 215.193 C 99.134 215.417,99.651 215.600,100.144 215.600 C 100.637 215.600,101.211 215.763,101.420 215.962 C 101.629 216.162,102.450 216.685,103.245 217.125 C 105.991 218.645,106.601 219.001,106.800 219.200 C 106.910 219.310,107.430 219.642,107.955 219.938 C 108.480 220.233,109.515 220.818,110.255 221.238 C 110.995 221.657,112.235 222.360,113.012 222.800 C 113.789 223.240,114.683 223.600,115.000 223.600 C 115.317 223.600,116.211 223.240,116.988 222.800 C 117.765 222.360,119.075 221.619,119.900 221.153 C 120.725 220.687,121.850 220.006,122.400 219.639 C 122.950 219.272,123.940 218.708,124.600 218.386 C 125.260 218.065,125.890 217.711,126.000 217.601 C 126.110 217.490,126.735 217.099,127.389 216.732 C 128.044 216.364,128.639 215.884,128.712 215.664 C 128.839 215.282,126.453 213.757,120.200 210.222 C 116.056 207.880,114.800 207.066,114.800 206.722 C 114.800 206.502,114.125 206.723,113.300 207.215 C 112.475 207.706,111.170 208.463,110.400 208.897 C 109.630 209.331,108.820 209.827,108.600 210.000 C 108.380 210.173,107.525 210.694,106.700 211.157 C 105.875 211.621,104.570 212.360,103.800 212.800 C 100.321 214.788,99.564 215.200,99.388 215.200 C 99.285 215.200,99.200 211.236,99.200 206.391 L 99.200 197.582 100.938 196.491 C 101.894 195.891,105.400 193.870,108.728 192.000 L 114.779 188.600 114.790 176.950 C 114.795 170.543,114.913 164.738,115.050 164.050 C 115.279 162.904,115.213 162.800,114.250 162.800 C 113.672 162.800,113.200 162.980,113.200 163.200 M186.261 177.699 C 186.433 177.977,185.094 178.190,184.226 178.023 C 183.717 177.925,180.400 179.653,180.400 180.016 C 180.400 180.176,179.995 180.418,179.500 180.553 C 178.749 180.759,178.699 180.865,179.200 181.194 C 179.530 181.411,179.603 181.591,179.361 181.594 C 178.666 181.604,177.102 183.118,177.359 183.533 C 177.487 183.740,177.344 184.114,177.043 184.365 C 176.741 184.615,176.484 185.563,176.471 186.471 C 176.459 187.380,176.294 188.230,176.105 188.361 C 175.535 188.758,175.525 191.199,176.094 191.206 C 176.475 191.211,176.466 191.297,176.057 191.556 C 175.679 191.796,175.649 191.983,175.957 192.174 C 176.201 192.324,176.400 193.337,176.400 194.424 C 176.400 195.511,176.580 196.400,176.800 196.400 C 177.020 196.400,177.200 196.634,177.200 196.920 C 177.200 197.643,178.138 199.593,178.487 199.597 C 178.646 199.599,178.660 199.300,178.519 198.934 C 178.344 198.477,178.415 198.362,178.748 198.568 C 179.015 198.733,179.130 199.191,179.004 199.587 C 178.836 200.117,179.040 200.373,179.774 200.558 C 180.445 200.726,180.697 201.003,180.543 201.404 C 180.385 201.816,180.575 202.000,181.157 202.000 C 181.621 202.000,182.000 202.180,182.000 202.400 C 182.000 202.620,182.191 202.800,182.424 202.800 C 182.657 202.800,182.712 202.575,182.547 202.300 C 182.340 201.955,182.455 201.969,182.918 202.345 C 183.288 202.644,183.849 202.790,184.166 202.669 C 184.482 202.547,184.936 202.682,185.175 202.969 C 185.468 203.323,186.718 203.494,189.054 203.500 C 191.163 203.506,192.287 203.374,191.950 203.161 C 191.570 202.920,191.795 202.810,192.676 202.806 C 193.378 202.803,194.064 202.620,194.200 202.400 C 194.336 202.180,195.067 202.000,195.824 202.000 C 196.804 202.000,197.200 201.820,197.200 201.376 C 197.200 201.033,197.008 200.871,196.773 201.017 C 196.539 201.162,196.380 201.037,196.421 200.740 C 196.592 199.491,196.372 198.370,196.000 198.600 C 195.780 198.736,195.600 198.513,195.600 198.104 C 195.600 196.554,192.785 195.619,192.258 196.993 C 192.127 197.333,191.766 197.485,191.410 197.349 C 191.069 197.218,190.567 197.268,190.295 197.462 C 189.506 198.021,186.800 197.459,186.800 196.736 C 186.800 196.532,186.552 196.418,186.249 196.482 C 185.402 196.663,182.680 193.533,183.301 193.093 C 183.700 192.810,183.699 192.698,183.300 192.536 C 182.732 192.306,182.589 188.400,183.149 188.400 C 183.341 188.400,183.613 187.680,183.754 186.800 C 183.894 185.920,184.203 185.200,184.441 185.200 C 184.678 185.200,185.229 184.795,185.666 184.300 C 186.103 183.805,186.347 183.625,186.207 183.900 C 186.067 184.175,186.128 184.400,186.343 184.400 C 186.558 184.400,186.795 184.216,186.869 183.992 C 187.072 183.384,192.031 183.404,192.409 184.015 C 192.580 184.291,193.017 184.402,193.380 184.263 C 193.768 184.114,193.941 184.173,193.797 184.405 C 193.487 184.907,194.019 184.904,194.800 184.400 C 195.278 184.091,195.287 184.011,194.846 184.006 C 194.526 184.003,194.726 183.659,195.318 183.193 C 196.259 182.453,196.856 178.473,195.942 179.036 C 195.800 179.124,195.581 178.926,195.454 178.598 C 195.303 178.202,194.672 178.000,193.589 178.000 C 192.689 178.000,192.054 177.836,192.178 177.635 C 192.375 177.316,191.423 177.298,190.200 177.597 C 189.980 177.651,189.620 177.645,189.400 177.584 C 188.489 177.333,186.089 177.421,186.261 177.699 M254.179 179.233 C 254.055 179.435,253.423 179.600,252.776 179.600 C 251.672 179.600,251.296 179.962,251.836 180.503 C 252.142 180.808,252.041 193.895,251.724 195.160 C 251.579 195.739,251.638 196.023,251.875 195.877 C 252.090 195.744,252.267 195.897,252.267 196.218 C 252.267 196.538,252.117 196.800,251.933 196.800 C 251.750 196.800,251.600 197.070,251.600 197.400 C 251.600 197.730,251.780 198.000,252.000 198.000 C 252.220 198.000,252.400 198.360,252.400 198.800 C 252.400 199.240,252.580 199.600,252.800 199.600 C 253.020 199.600,253.200 199.842,253.200 200.138 C 253.200 200.843,254.582 202.085,254.954 201.713 C 255.112 201.554,255.112 201.763,254.954 202.176 C 254.714 202.802,254.811 202.890,255.533 202.702 C 256.081 202.558,256.400 202.659,256.400 202.976 C 256.400 203.980,262.907 203.677,264.143 202.615 C 265.290 201.629,265.472 200.832,264.720 200.080 C 264.347 199.707,264.369 199.597,264.820 199.586 C 265.175 199.577,264.934 199.171,264.200 198.540 C 263.495 197.934,263.297 197.608,263.721 197.750 C 264.146 197.892,264.341 197.828,264.197 197.595 C 263.878 197.080,261.719 197.083,261.400 197.600 C 260.685 198.756,258.800 197.472,258.800 195.829 C 258.800 195.263,258.610 194.800,258.379 194.800 C 258.116 194.800,257.989 193.745,258.040 192.000 L 258.121 189.200 260.861 189.200 C 262.420 189.200,263.600 189.372,263.600 189.600 C 263.600 191.563,264.304 189.334,264.358 187.200 L 264.429 184.400 261.214 184.400 L 258.000 184.400 258.000 181.633 L 258.000 178.867 256.203 178.867 C 255.215 178.867,254.304 179.032,254.179 179.233 M202.226 183.957 C 202.076 184.201,201.558 184.406,201.076 184.413 C 198.846 184.445,198.774 184.762,198.892 194.050 L 199.000 202.600 202.000 202.600 L 205.000 202.600 205.000 195.900 L 205.000 189.199 206.524 189.200 C 207.437 189.200,207.948 189.360,207.800 189.600 C 207.651 189.842,208.196 190.000,209.176 190.000 C 210.503 190.000,210.800 189.861,210.800 189.243 C 210.800 188.483,211.713 187.847,212.161 188.294 C 212.292 188.426,212.400 189.223,212.400 190.067 C 212.400 190.910,212.580 191.600,212.800 191.600 C 213.020 191.600,213.200 191.883,213.200 192.229 C 213.200 192.574,213.462 193.119,213.783 193.440 C 214.104 193.761,214.262 194.293,214.136 194.624 C 214.005 194.963,214.273 195.543,214.753 195.959 C 215.219 196.363,215.600 196.952,215.600 197.267 C 215.600 197.582,215.825 198.082,216.100 198.379 C 216.500 198.810,216.500 198.861,216.100 198.635 C 215.793 198.462,215.600 198.594,215.600 198.976 C 215.600 199.319,215.864 199.600,216.186 199.600 C 217.723 199.600,217.642 202.702,216.087 203.395 C 215.599 203.612,215.200 203.949,215.200 204.144 C 215.200 204.339,214.954 204.293,214.652 204.043 C 213.960 203.469,212.776 203.643,211.552 204.499 C 210.741 205.066,210.689 205.226,211.200 205.576 C 211.605 205.854,211.637 205.990,211.300 205.994 C 210.988 205.998,210.800 206.577,210.800 207.534 L 210.800 209.068 215.248 209.148 C 219.165 209.218,219.667 209.152,219.453 208.593 C 219.313 208.229,219.376 208.062,219.601 208.201 C 220.350 208.664,222.800 205.508,222.800 204.081 C 222.800 203.679,223.169 202.955,223.620 202.470 C 224.072 201.986,224.330 201.411,224.195 201.192 C 224.060 200.973,224.231 200.686,224.575 200.554 C 224.942 200.413,225.200 199.838,225.200 199.157 C 225.200 198.521,225.403 198.000,225.650 198.000 C 225.935 198.000,226.013 197.567,225.863 196.816 C 225.733 196.164,225.798 195.525,226.009 195.395 C 226.221 195.264,226.285 195.435,226.153 195.779 C 226.022 196.121,226.114 196.400,226.357 196.400 C 226.601 196.400,226.800 195.955,226.800 195.412 C 226.800 194.869,227.160 193.783,227.600 193.000 C 228.040 192.217,228.400 191.232,228.400 190.811 C 228.400 190.391,228.597 189.925,228.838 189.776 C 229.080 189.627,229.202 188.998,229.111 188.377 C 229.020 187.756,229.114 187.283,229.320 187.324 C 229.525 187.366,229.747 187.084,229.812 186.698 C 229.877 186.312,229.766 186.098,229.565 186.222 C 229.364 186.346,229.200 186.267,229.200 186.047 C 229.200 185.827,229.380 185.536,229.600 185.400 C 230.666 184.741,229.711 184.400,226.800 184.400 C 223.634 184.400,223.600 184.411,223.600 185.424 C 223.600 186.004,223.427 186.340,223.200 186.200 C 222.980 186.064,222.800 186.293,222.800 186.710 C 222.800 187.126,222.675 187.592,222.522 187.745 C 222.369 187.898,222.201 188.585,222.149 189.271 C 222.096 189.958,221.835 190.654,221.569 190.819 C 221.303 190.984,221.184 191.496,221.305 191.959 C 221.575 192.992,221.042 193.380,220.103 192.834 C 219.581 192.530,219.549 192.421,219.980 192.412 C 220.431 192.403,220.453 192.293,220.080 191.920 C 219.816 191.656,219.600 191.114,219.600 190.715 C 219.600 190.061,218.915 188.512,218.399 188.000 C 218.288 187.890,218.136 187.275,218.061 186.634 C 217.834 184.685,217.215 184.400,213.205 184.400 C 210.872 184.400,209.642 184.256,209.800 184.000 C 209.940 183.773,209.604 183.600,209.024 183.600 C 208.461 183.600,208.000 183.802,208.000 184.049 C 208.000 184.354,207.802 184.333,207.383 183.986 C 206.923 183.604,206.651 183.589,206.313 183.927 C 205.998 184.242,205.706 184.254,205.361 183.968 C 205.013 183.679,204.608 183.712,204.019 184.077 C 203.320 184.510,203.118 184.507,202.838 184.057 C 202.602 183.679,202.417 183.649,202.226 183.957 M234.967 184.053 C 234.849 184.244,234.245 184.400,233.625 184.400 C 231.612 184.400,231.580 184.614,231.694 197.248 L 231.800 209.000 234.800 209.000 L 237.800 209.000 237.917 205.900 C 238.024 203.060,238.424 202.038,238.936 203.300 C 239.089 203.676,239.244 203.652,239.563 203.200 C 239.941 202.667,239.989 202.667,240.000 203.200 C 240.011 203.733,240.055 203.733,240.400 203.200 C 240.683 202.762,240.789 202.742,240.794 203.125 C 240.803 203.911,243.595 203.356,244.496 202.389 C 245.371 201.450,245.774 201.370,245.455 202.200 C 245.329 202.530,245.399 202.800,245.613 202.800 C 245.826 202.800,246.000 202.540,246.000 202.223 C 246.000 201.905,246.540 201.326,247.200 200.936 C 247.860 200.546,248.400 199.917,248.400 199.537 C 248.400 199.158,248.589 198.731,248.820 198.588 C 249.393 198.234,249.238 191.092,248.649 190.706 C 248.331 190.498,248.346 190.410,248.700 190.406 C 248.975 190.403,249.200 190.130,249.200 189.800 C 249.200 189.470,249.020 189.200,248.800 189.200 C 248.580 189.200,248.400 188.965,248.400 188.678 C 248.400 187.841,245.728 185.160,244.825 185.092 C 244.371 185.058,244.000 184.867,244.000 184.668 C 244.000 184.469,243.653 184.397,243.230 184.508 C 242.723 184.641,242.525 184.539,242.652 184.209 C 242.878 183.620,235.330 183.466,234.967 184.053 M272.397 183.879 C 272.394 184.209,270.514 185.200,269.892 185.200 C 269.511 185.200,268.400 186.212,268.400 186.559 C 268.400 186.678,268.715 186.662,269.100 186.525 C 269.809 186.272,268.335 187.769,267.307 188.347 C 267.035 188.500,266.781 189.467,266.742 190.496 C 266.703 191.526,266.520 192.274,266.336 192.160 C 265.809 191.835,265.943 194.583,266.480 195.120 C 266.853 195.493,266.848 195.600,266.457 195.600 C 266.078 195.600,266.097 195.803,266.533 196.426 C 266.851 196.880,267.020 197.600,266.909 198.026 C 266.798 198.452,266.908 198.800,267.153 198.800 C 267.399 198.800,267.600 199.160,267.600 199.600 C 267.600 200.117,267.867 200.400,268.353 200.400 C 268.770 200.400,269.200 200.757,269.316 201.200 C 269.431 201.640,269.812 202.000,270.163 202.000 C 270.513 202.000,270.800 202.180,270.800 202.400 C 270.800 202.620,271.160 202.800,271.600 202.800 C 272.040 202.800,272.400 202.980,272.400 203.200 C 272.400 203.420,272.591 203.600,272.824 203.600 C 273.057 203.600,273.136 203.420,273.000 203.200 C 272.864 202.980,273.134 202.800,273.600 202.800 C 274.066 202.800,274.336 202.980,274.200 203.200 C 273.849 203.768,275.342 203.698,275.920 203.120 C 276.293 202.747,276.507 202.747,276.880 203.120 C 277.461 203.701,278.800 203.757,278.800 203.200 C 278.800 202.980,279.070 202.800,279.400 202.800 C 279.730 202.800,280.003 202.575,280.006 202.300 C 280.011 201.927,280.088 201.919,280.311 202.270 C 280.517 202.593,281.085 202.317,282.136 201.382 C 282.975 200.635,283.551 199.845,283.416 199.627 C 283.282 199.408,283.605 198.543,284.134 197.704 C 285.109 196.160,285.643 190.479,284.762 191.023 C 284.563 191.146,284.397 190.652,284.394 189.924 C 284.389 188.875,284.299 188.725,283.959 189.200 C 283.618 189.677,283.573 189.606,283.739 188.856 C 283.894 188.158,283.749 187.860,283.187 187.713 C 282.769 187.603,282.314 187.160,282.177 186.728 C 282.024 186.245,281.701 186.029,281.339 186.168 C 280.916 186.330,280.786 186.154,280.875 185.540 C 280.969 184.897,280.758 184.649,280.017 184.533 C 279.477 184.449,278.937 184.230,278.817 184.046 C 278.537 183.615,272.401 183.455,272.397 183.879 M277.100 189.840 C 277.375 189.862,277.764 189.907,277.965 189.940 C 278.166 189.973,278.245 190.540,278.141 191.200 C 278.032 191.893,278.130 192.400,278.373 192.400 C 278.607 192.400,278.767 193.102,278.732 193.983 C 278.695 194.932,278.509 195.467,278.267 195.318 C 278.026 195.169,277.967 195.336,278.119 195.734 C 278.286 196.169,278.171 196.400,277.787 196.400 C 277.464 196.400,277.200 196.681,277.200 197.024 C 277.200 197.367,277.039 197.548,276.842 197.426 C 276.645 197.304,276.363 197.519,276.215 197.902 C 275.960 198.565,275.927 198.565,275.553 197.900 C 275.337 197.515,274.976 197.200,274.752 197.200 C 274.162 197.200,273.200 196.151,273.200 195.509 C 273.200 195.207,272.984 194.744,272.720 194.480 C 272.347 194.107,272.347 194.000,272.720 194.000 C 272.984 194.000,273.200 193.719,273.200 193.376 C 273.200 193.033,273.020 192.864,272.800 193.000 C 272.580 193.136,272.400 192.967,272.400 192.624 C 272.400 192.281,272.580 192.000,272.800 192.000 C 273.020 192.000,273.200 191.730,273.200 191.400 C 273.200 191.070,273.380 190.800,273.600 190.800 C 273.820 190.800,274.000 190.524,274.000 190.187 C 274.000 189.367,275.669 188.722,276.200 189.337 C 276.420 189.592,276.825 189.818,277.100 189.840 M239.920 189.680 C 240.289 190.049,240.400 190.050,240.400 189.684 C 240.400 189.385,240.698 189.463,241.200 189.893 C 241.640 190.270,242.000 190.793,242.000 191.056 C 242.000 191.318,242.190 191.597,242.422 191.674 C 243.367 191.989,242.940 196.048,241.856 197.053 C 239.313 199.411,238.000 198.041,238.000 193.029 C 238.000 189.053,238.471 188.231,239.920 189.680 M259.907 189.890 C 260.626 189.979,261.706 189.977,262.307 189.886 C 262.908 189.795,262.320 189.722,261.000 189.724 C 259.680 189.726,259.188 189.801,259.907 189.890 M249.400 208.800 C 249.264 209.020,248.801 209.200,248.371 209.200 C 247.609 209.200,247.592 209.532,247.695 222.300 L 247.800 235.400 250.800 235.400 L 253.800 235.400 254.000 232.400 L 254.200 229.400 255.115 230.315 C 255.618 230.818,255.939 231.375,255.828 231.554 C 255.718 231.733,255.946 232.221,256.334 232.639 C 256.723 233.058,257.168 233.734,257.324 234.142 C 257.485 234.564,257.849 234.790,258.170 234.667 C 258.480 234.548,258.836 234.717,258.961 235.042 C 259.418 236.233,265.426 235.632,265.289 234.410 C 265.227 233.865,264.909 233.269,264.580 233.085 C 264.252 232.901,264.084 232.588,264.207 232.388 C 264.330 232.189,264.064 231.797,263.616 231.517 C 263.167 231.237,262.800 230.692,262.800 230.307 C 262.800 229.922,262.305 229.110,261.700 228.503 C 259.524 226.321,259.121 224.922,260.400 224.000 C 260.840 223.683,261.200 223.193,261.200 222.912 C 261.200 222.630,261.515 222.071,261.900 221.669 C 262.285 221.266,262.985 220.478,263.455 219.917 C 263.926 219.356,264.556 218.814,264.855 218.713 C 265.314 218.559,265.313 218.425,264.851 217.865 C 264.024 216.864,257.689 216.893,257.315 217.900 C 257.172 218.285,256.772 218.870,256.425 219.200 C 256.078 219.530,255.540 220.295,255.230 220.900 C 254.191 222.922,254.000 222.042,254.000 215.240 L 254.000 208.479 252.500 208.504 C 251.675 208.517,250.740 208.725,250.423 208.964 C 249.987 209.294,249.920 209.278,250.147 208.900 C 250.312 208.625,250.267 208.400,250.047 208.400 C 249.827 208.400,249.536 208.580,249.400 208.800 M174.882 213.500 L 175.000 216.200 178.500 216.316 L 182.000 216.431 182.000 226.016 L 182.000 235.600 185.600 235.600 C 187.733 235.600,189.200 235.437,189.200 235.200 C 189.200 234.980,189.020 234.800,188.800 234.800 C 188.545 234.800,188.400 231.467,188.400 225.600 L 188.400 216.400 192.000 216.400 L 195.600 216.400 195.600 213.600 L 195.600 210.800 185.182 210.800 L 174.763 210.800 174.882 213.500 M201.953 216.700 C 201.927 216.865,201.916 217.102,201.928 217.227 C 201.941 217.352,201.413 217.375,200.755 217.279 C 199.917 217.156,199.377 217.327,198.950 217.852 C 198.615 218.263,198.475 218.330,198.639 218.000 C 198.836 217.603,198.640 217.661,198.061 218.169 C 197.205 218.920,197.187 219.132,197.292 227.169 L 197.400 235.400 200.311 235.518 C 204.429 235.684,204.400 235.734,204.400 228.629 C 204.400 225.010,204.248 222.800,204.000 222.800 C 202.901 222.800,203.790 222.151,205.000 222.069 C 205.770 222.017,206.400 222.154,206.400 222.373 C 206.400 222.592,207.210 222.755,208.200 222.735 L 210.000 222.699 210.000 220.783 C 210.000 219.624,210.198 218.787,210.500 218.665 C 210.885 218.510,210.879 218.456,210.476 218.432 C 210.188 218.414,210.065 218.219,210.202 217.997 C 210.339 217.776,210.214 217.523,209.925 217.436 C 209.636 217.348,209.040 217.147,208.600 216.988 C 207.167 216.470,205.180 216.441,205.460 216.941 C 205.617 217.220,205.507 217.204,205.179 216.900 C 204.600 216.363,202.031 216.203,201.953 216.700 M214.733 216.788 C 214.660 217.002,214.150 217.244,213.600 217.326 C 212.435 217.501,212.043 218.879,212.869 219.899 C 213.252 220.372,213.261 220.470,212.900 220.253 C 212.147 219.801,212.268 221.525,213.043 222.300 C 213.565 222.822,213.904 222.861,214.846 222.505 C 215.720 222.175,215.941 222.182,215.744 222.534 C 215.575 222.834,215.674 222.823,216.021 222.500 C 216.678 221.891,219.600 221.831,219.600 222.427 C 219.600 222.666,219.938 222.747,220.366 222.611 C 220.788 222.477,221.267 222.585,221.432 222.852 C 221.638 223.185,221.523 223.256,221.066 223.081 C 220.700 222.940,220.400 222.999,220.400 223.213 C 220.400 223.429,219.029 223.600,217.288 223.600 C 214.635 223.600,214.092 223.718,213.600 224.400 C 213.283 224.840,212.703 225.200,212.312 225.200 C 211.920 225.200,211.600 225.391,211.600 225.624 C 211.600 225.857,211.825 225.933,212.100 225.793 C 212.375 225.653,212.195 225.897,211.700 226.334 C 210.795 227.132,210.454 227.861,211.200 227.400 C 211.420 227.264,211.600 227.333,211.600 227.553 C 211.600 227.773,211.420 228.064,211.200 228.200 C 210.980 228.336,210.800 229.236,210.800 230.200 C 210.800 231.164,210.980 232.064,211.200 232.200 C 211.420 232.336,211.600 232.816,211.600 233.266 C 211.600 233.827,211.788 234.014,212.195 233.857 C 212.523 233.732,212.764 233.757,212.732 233.914 C 212.590 234.606,213.349 235.600,214.019 235.600 C 214.423 235.600,214.864 235.780,215.001 236.001 C 215.164 236.265,215.529 236.252,216.073 235.961 C 216.526 235.719,216.792 235.690,216.664 235.897 C 216.526 236.120,217.885 236.289,220.006 236.314 C 221.972 236.336,223.686 236.185,223.814 235.977 C 223.942 235.770,224.854 235.600,225.840 235.600 L 227.633 235.600 227.579 229.621 C 227.542 225.517,227.380 223.582,227.063 223.452 C 226.737 223.319,226.749 223.254,227.100 223.232 C 227.375 223.214,227.600 223.009,227.600 222.776 C 227.600 222.543,227.443 222.450,227.250 222.569 C 227.058 222.688,226.900 222.301,226.900 221.709 C 226.900 221.118,226.697 220.566,226.450 220.483 C 226.203 220.401,226.000 220.080,226.000 219.770 C 226.000 218.914,224.351 217.200,223.528 217.200 C 223.128 217.200,222.800 217.020,222.800 216.800 C 222.800 216.580,222.609 216.400,222.376 216.400 C 222.143 216.400,222.056 216.568,222.183 216.772 C 222.309 216.977,222.230 217.258,222.007 217.396 C 221.783 217.534,221.600 217.381,221.600 217.055 C 221.600 216.352,216.408 216.294,215.906 216.991 C 215.720 217.251,215.610 217.217,215.606 216.900 C 215.599 216.311,214.927 216.225,214.733 216.788 M237.328 216.984 C 237.368 217.213,236.984 217.342,236.476 217.271 C 235.968 217.200,235.258 217.380,234.899 217.671 C 234.426 218.055,234.329 218.063,234.547 217.700 C 235.099 216.782,234.388 217.185,232.987 218.587 C 232.224 219.349,231.600 220.296,231.600 220.690 C 231.600 221.085,231.240 221.632,230.800 221.907 C 230.252 222.249,230.000 222.840,230.000 223.780 C 230.000 224.535,229.820 225.264,229.600 225.400 C 229.380 225.536,229.200 226.087,229.200 226.624 C 229.200 227.161,229.380 227.600,229.600 227.600 C 229.820 227.600,230.000 228.125,230.000 228.767 C 230.000 229.408,230.225 230.024,230.500 230.135 C 230.900 230.296,230.900 230.343,230.500 230.368 C 229.695 230.419,229.926 231.523,230.800 231.800 C 231.323 231.966,231.600 232.405,231.600 233.070 C 231.600 233.793,231.767 234.021,232.180 233.863 C 232.567 233.715,232.685 233.833,232.537 234.220 C 232.386 234.614,232.586 234.800,233.157 234.800 C 233.621 234.800,234.000 234.980,234.000 235.200 C 234.000 235.420,234.540 235.600,235.200 235.600 C 235.860 235.600,236.400 235.767,236.400 235.971 C 236.400 236.484,240.868 236.441,241.493 235.922 C 241.851 235.626,242.000 235.634,242.000 235.951 C 242.000 236.599,243.154 236.503,243.861 235.796 C 244.193 235.464,244.596 235.274,244.757 235.373 C 245.247 235.676,245.147 232.221,244.657 231.906 C 244.327 231.694,244.339 231.611,244.700 231.606 C 244.975 231.603,245.200 231.242,245.200 230.804 C 245.200 229.945,243.502 229.767,242.500 230.522 C 242.175 230.766,241.780 230.715,241.370 230.375 C 240.848 229.942,240.680 229.948,240.396 230.407 C 240.104 230.879,239.898 230.880,239.027 230.414 C 238.463 230.112,237.890 229.977,237.753 230.114 C 237.208 230.659,236.400 229.162,236.400 227.605 C 236.400 226.399,236.265 226.029,235.900 226.235 C 235.500 226.461,235.500 226.410,235.900 225.979 C 236.175 225.682,236.400 225.026,236.400 224.520 C 236.400 223.886,236.634 223.600,237.153 223.600 C 237.568 223.600,237.990 223.282,238.092 222.892 C 238.287 222.146,240.400 221.699,240.400 222.404 C 240.400 222.622,240.591 222.800,240.824 222.800 C 241.057 222.800,241.136 222.620,241.000 222.400 C 240.864 222.180,240.943 222.000,241.176 222.000 C 241.409 222.000,241.600 222.150,241.600 222.333 C 241.600 222.517,242.214 222.667,242.964 222.667 C 244.069 222.667,244.302 222.528,244.188 221.938 C 244.111 221.537,244.307 220.950,244.624 220.633 C 244.941 220.316,245.187 219.729,245.172 219.329 C 245.147 218.673,245.109 218.680,244.800 219.400 C 244.520 220.052,244.451 220.075,244.428 219.524 C 244.413 219.152,244.580 218.736,244.800 218.600 C 245.675 218.059,245.221 217.179,244.200 217.436 C 243.561 217.596,243.200 217.518,243.200 217.220 C 243.200 216.963,243.020 216.864,242.800 217.000 C 242.580 217.136,242.400 217.054,242.400 216.818 C 242.400 216.549,241.446 216.423,239.828 216.479 C 238.313 216.531,237.286 216.739,237.328 216.984 M273.200 216.848 C 273.200 217.042,272.703 217.200,272.096 217.200 C 271.426 217.200,270.796 217.514,270.493 218.000 C 270.218 218.440,269.623 218.800,269.170 218.800 C 268.545 218.800,268.404 218.982,268.585 219.553 C 268.738 220.036,268.595 220.393,268.187 220.550 C 267.836 220.684,267.660 220.974,267.795 221.193 C 267.935 221.419,267.785 221.492,267.447 221.363 C 266.999 221.191,266.860 221.426,266.885 222.309 C 266.903 222.956,266.762 223.736,266.570 224.042 C 266.106 224.785,266.002 229.200,266.449 229.200 C 266.642 229.200,266.800 229.451,266.800 229.757 C 266.800 230.064,267.074 230.420,267.410 230.548 C 267.833 230.711,267.944 231.085,267.772 231.771 C 267.523 232.762,269.001 234.800,269.970 234.800 C 270.193 234.800,271.027 235.166,271.824 235.614 C 273.371 236.482,278.800 236.701,278.800 235.895 C 278.800 235.679,279.070 235.726,279.400 236.000 C 279.779 236.315,280.000 236.341,280.000 236.072 C 280.000 235.838,280.765 235.591,281.700 235.523 C 283.480 235.394,284.345 233.785,283.231 232.671 C 282.994 232.434,282.800 231.736,282.800 231.120 C 282.800 229.799,279.925 229.376,279.446 230.625 C 279.299 231.007,279.010 231.129,278.703 230.938 C 278.426 230.766,277.812 230.675,277.338 230.736 C 276.864 230.797,276.359 230.657,276.215 230.424 C 276.071 230.191,275.596 230.000,275.160 230.000 C 274.723 230.000,273.980 229.640,273.508 229.200 L 272.649 228.400 278.460 228.400 L 284.270 228.400 284.340 226.547 C 284.379 225.528,284.183 224.414,283.905 224.070 C 283.508 223.580,283.507 223.511,283.900 223.747 C 284.246 223.955,284.400 223.745,284.400 223.066 C 284.400 222.527,284.133 221.983,283.807 221.858 C 283.469 221.728,283.315 221.365,283.450 221.015 C 283.579 220.677,283.486 220.400,283.243 220.400 C 282.999 220.400,282.800 220.040,282.800 219.600 C 282.800 219.160,282.609 218.800,282.376 218.800 C 282.143 218.800,282.064 218.980,282.200 219.200 C 282.336 219.420,282.244 219.600,281.997 219.600 C 281.728 219.600,281.649 219.277,281.800 218.800 C 281.998 218.176,281.872 218.000,281.227 218.000 C 280.772 218.000,280.400 217.820,280.400 217.600 C 280.400 217.380,280.040 217.200,279.600 217.200 C 279.160 217.200,278.800 217.036,278.800 216.836 C 278.800 216.635,277.540 216.477,276.000 216.484 C 274.460 216.491,273.200 216.655,273.200 216.848 M291.783 216.827 C 291.656 217.032,290.833 217.200,289.953 217.200 C 288.988 217.200,288.451 217.359,288.600 217.600 C 288.740 217.827,288.402 218.000,287.816 218.000 L 286.784 218.000 286.892 226.700 L 287.000 235.400 290.000 235.400 L 293.000 235.400 293.000 228.775 L 293.000 222.149 294.300 222.062 C 295.015 222.014,295.600 222.161,295.600 222.387 C 295.600 222.614,296.061 222.800,296.624 222.800 C 297.336 222.800,297.556 222.648,297.347 222.300 C 297.136 221.950,297.246 221.962,297.712 222.340 C 299.405 223.713,300.458 218.500,298.792 216.993 C 298.299 216.547,297.837 216.391,297.676 216.616 C 297.330 217.098,296.264 217.344,296.554 216.875 C 296.671 216.685,295.697 216.513,294.390 216.492 C 293.083 216.472,291.910 216.622,291.783 216.827 M197.898 231.100 C 197.826 233.245,197.767 231.490,197.767 227.200 C 197.767 222.910,197.826 221.155,197.898 223.300 C 197.970 225.445,197.970 228.955,197.898 231.100 M277.028 221.955 C 276.907 222.150,277.077 222.532,277.404 222.804 C 278.513 223.724,278.008 224.000,275.300 223.954 C 273.815 223.928,272.915 223.825,273.300 223.724 C 273.685 223.624,274.000 223.205,274.000 222.795 C 274.000 222.227,274.359 222.011,275.500 221.891 C 276.325 221.805,277.056 221.704,277.124 221.667 C 277.192 221.630,277.149 221.760,277.028 221.955 M220.700 228.369 C 220.993 228.387,221.200 228.947,221.200 229.720 C 221.200 231.173,218.976 231.433,217.674 230.132 C 216.986 229.443,218.380 227.988,219.517 228.207 C 219.893 228.280,220.425 228.353,220.700 228.369 " stroke="none" fill="#3cb4fc" fill-rule="evenodd"></path><path id="path3" d="M114.715 197.363 C 114.641 203.198,114.742 206.401,115.000 206.401 C 115.258 206.401,115.359 203.457,115.284 198.137 C 115.220 193.591,115.310 189.739,115.484 189.576 C 115.658 189.413,119.040 191.126,123.000 193.381 L 130.200 197.483 130.200 206.041 C 130.200 213.440,130.119 214.582,129.600 214.471 C 128.310 214.192,130.743 215.894,135.600 218.667 C 138.350 220.238,143.279 223.077,146.554 224.977 C 149.829 226.876,152.681 228.373,152.891 228.303 C 153.102 228.233,152.763 227.915,152.137 227.598 C 151.512 227.280,149.740 226.276,148.200 225.367 C 145.806 223.954,143.443 222.583,136.200 218.405 C 135.540 218.025,134.190 217.255,133.200 216.696 L 131.400 215.679 131.293 206.661 L 131.185 197.644 130.093 196.889 C 128.711 195.934,116.414 188.934,115.507 188.586 C 114.885 188.347,114.820 189.064,114.715 197.363 " stroke="none" fill="#c4c4c4" fill-rule="evenodd"></path><path id="path4" d="M98.651 171.393 C 97.946 171.927,97.963 171.955,98.940 171.880 C 99.511 171.836,99.997 171.625,100.019 171.410 C 100.084 170.788,99.462 170.780,98.651 171.393 M90.800 175.975 C 90.800 176.181,91.160 176.323,91.600 176.290 C 92.040 176.257,92.400 176.088,92.400 175.915 C 92.400 175.742,92.040 175.600,91.600 175.600 C 91.160 175.600,90.800 175.769,90.800 175.975 M88.813 177.091 C 88.289 177.682,88.303 177.723,88.946 177.476 C 89.342 177.324,89.741 177.200,89.833 177.200 C 89.925 177.200,90.000 177.020,90.000 176.800 C 90.000 176.212,89.481 176.339,88.813 177.091 M184.855 177.876 C 184.316 178.286,184.440 178.308,185.554 177.999 C 187.206 177.542,187.603 177.219,186.401 177.310 C 185.911 177.347,185.216 177.601,184.855 177.876 M258.000 181.576 C 258.000 183.254,258.168 184.400,258.414 184.400 C 258.913 184.400,258.845 179.275,258.342 178.964 C 258.154 178.848,258.000 180.023,258.000 181.576 M251.618 187.648 C 251.591 191.672,251.659 194.875,251.768 194.766 C 252.031 194.502,252.129 180.795,251.869 180.536 C 251.757 180.424,251.645 183.625,251.618 187.648 M76.656 184.678 C 76.228 185.106,76.356 206.000,76.787 206.000 C 77.210 206.000,77.574 184.830,77.156 184.572 C 77.021 184.489,76.796 184.537,76.656 184.678 M280.800 185.787 C 280.800 186.129,281.036 186.284,281.364 186.159 C 281.703 186.028,282.033 186.273,282.191 186.771 C 282.336 187.227,282.734 187.600,283.076 187.600 C 283.611 187.600,283.621 187.502,283.149 186.900 C 281.902 185.310,280.800 184.788,280.800 185.787 M268.177 186.967 C 267.750 187.279,267.507 187.640,267.636 187.770 C 267.766 187.899,268.288 187.644,268.797 187.203 C 269.849 186.290,269.358 186.104,268.177 186.967 M274.900 189.234 C 273.640 189.710,273.779 190.030,275.200 189.921 C 275.860 189.871,276.400 189.699,276.400 189.539 C 276.400 189.009,275.812 188.889,274.900 189.234 M258.040 192.000 C 257.989 193.745,258.116 194.800,258.379 194.800 C 258.631 194.800,258.800 193.743,258.800 192.164 L 258.800 189.529 261.201 189.664 C 262.521 189.739,263.601 189.665,263.601 189.500 C 263.600 189.335,262.367 189.200,260.861 189.200 L 258.121 189.200 258.040 192.000 M277.043 190.169 C 277.319 190.887,278.424 191.343,278.295 190.686 C 278.194 190.169,277.588 189.616,277.113 189.606 C 276.954 189.603,276.923 189.856,277.043 190.169 M266.000 191.376 C 266.000 191.693,266.169 192.057,266.376 192.185 C 266.582 192.313,266.724 192.053,266.691 191.609 C 266.622 190.695,266.000 190.486,266.000 191.376 M195.108 196.900 C 195.331 197.175,195.595 197.760,195.695 198.200 C 195.858 198.921,195.906 198.932,196.177 198.310 C 196.364 197.880,196.248 197.391,195.867 197.010 C 195.135 196.278,194.532 196.191,195.108 196.900 M188.159 197.534 C 188.399 197.921,189.853 197.880,190.259 197.475 C 190.410 197.324,189.953 197.200,189.243 197.200 C 188.533 197.200,188.046 197.350,188.159 197.534 M283.672 198.425 C 283.382 198.894,283.250 199.383,283.379 199.512 C 283.765 199.899,284.485 198.935,284.338 198.229 C 284.222 197.680,284.114 197.712,283.672 198.425 M196.509 200.409 C 196.476 200.853,196.618 201.113,196.824 200.985 C 197.279 200.704,197.327 199.600,196.885 199.600 C 196.712 199.600,196.543 199.964,196.509 200.409 M216.510 200.400 C 216.475 200.865,216.696 201.200,217.039 201.200 C 217.504 201.200,217.538 201.032,217.200 200.400 C 216.965 199.960,216.726 199.600,216.671 199.600 C 216.616 199.600,216.543 199.960,216.510 200.400 M253.200 201.124 C 253.200 201.859,254.700 202.492,255.040 201.901 C 255.198 201.625,255.179 201.535,254.997 201.701 C 254.814 201.866,254.335 201.703,253.932 201.339 C 253.520 200.965,253.200 200.872,253.200 201.124 M244.800 202.000 C 244.483 202.196,244.356 202.489,244.518 202.652 C 244.681 202.814,245.023 202.737,245.280 202.480 C 245.884 201.876,245.547 201.538,244.800 202.000 M194.200 202.400 C 194.064 202.620,194.323 202.800,194.776 202.800 C 195.229 202.800,195.600 202.620,195.600 202.400 C 195.600 202.180,195.341 202.000,195.024 202.000 C 194.707 202.000,194.336 202.180,194.200 202.400 M184.400 203.000 C 184.400 203.330,184.692 203.600,185.049 203.600 C 185.580 203.600,185.608 203.491,185.200 203.000 C 184.926 202.670,184.634 202.400,184.551 202.400 C 184.468 202.400,184.400 202.670,184.400 203.000 M223.092 203.042 C 222.931 203.202,222.800 203.609,222.800 203.947 C 222.800 204.397,222.918 204.442,223.245 204.115 C 223.490 203.870,223.621 203.463,223.537 203.210 C 223.452 202.957,223.252 202.881,223.092 203.042 M273.120 203.280 C 273.493 203.653,273.707 203.653,274.080 203.280 C 274.453 202.907,274.347 202.800,273.600 202.800 C 272.853 202.800,272.747 202.907,273.120 203.280 M275.800 203.200 C 275.664 203.420,275.934 203.600,276.400 203.600 C 276.866 203.600,277.136 203.420,277.000 203.200 C 276.864 202.980,276.594 202.800,276.400 202.800 C 276.206 202.800,275.936 202.980,275.800 203.200 M76.800 217.139 C 76.690 223.156,76.732 228.286,76.894 228.539 C 77.080 228.832,77.190 228.845,77.194 228.574 C 77.197 228.340,77.875 227.783,78.700 227.336 C 80.557 226.330,82.353 225.298,85.200 223.600 C 86.410 222.879,87.985 221.953,88.700 221.544 C 89.415 221.135,90.585 220.460,91.300 220.045 C 92.015 219.630,94.084 218.441,95.898 217.404 C 97.712 216.366,99.094 215.352,98.970 215.151 C 98.846 214.950,98.231 215.151,97.603 215.598 C 96.976 216.044,95.504 216.916,94.332 217.535 C 91.654 218.948,90.257 219.743,90.000 220.000 C 89.890 220.110,89.395 220.425,88.900 220.700 C 88.405 220.975,87.595 221.425,87.100 221.700 C 86.605 221.975,86.110 222.290,86.000 222.400 C 85.890 222.510,85.080 222.974,84.200 223.430 C 82.131 224.504,80.652 225.348,80.400 225.600 C 80.092 225.908,77.706 227.200,77.445 227.200 C 77.318 227.200,77.165 222.475,77.106 216.700 L 76.999 206.200 76.800 217.139 M114.800 206.762 C 114.800 207.071,116.107 207.909,120.200 210.222 C 126.453 213.757,128.839 215.282,128.712 215.664 C 128.639 215.884,128.044 216.364,127.389 216.732 C 126.735 217.099,126.110 217.490,126.000 217.601 C 125.890 217.711,125.260 218.065,124.600 218.386 C 123.940 218.708,122.950 219.272,122.400 219.639 C 121.850 220.006,120.725 220.687,119.900 221.153 C 119.075 221.619,117.765 222.360,116.988 222.800 C 116.211 223.240,115.317 223.600,115.000 223.600 C 114.683 223.600,113.789 223.240,113.012 222.800 C 112.235 222.360,110.995 221.657,110.255 221.238 C 109.515 220.818,108.480 220.233,107.955 219.938 C 107.430 219.642,106.910 219.310,106.800 219.200 C 106.604 219.004,106.138 218.731,103.245 217.120 C 102.450 216.677,101.584 216.139,101.319 215.924 C 101.055 215.710,100.546 215.594,100.188 215.667 C 99.625 215.782,101.308 216.909,105.800 219.426 C 108.032 220.677,109.740 221.676,112.195 223.168 L 114.897 224.810 119.149 222.356 C 131.714 215.104,130.780 215.720,130.000 215.199 C 129.363 214.772,126.625 213.155,124.553 211.980 C 123.868 211.592,122.094 210.537,120.612 209.637 C 119.131 208.737,117.802 207.996,117.659 207.991 C 117.517 207.986,116.950 207.630,116.400 207.200 C 115.304 206.343,114.800 206.205,114.800 206.762 M188.400 225.600 C 188.400 231.467,188.545 234.800,188.800 234.800 C 189.055 234.800,189.200 231.467,189.200 225.600 C 189.200 219.733,189.055 216.400,188.800 216.400 C 188.545 216.400,188.400 219.733,188.400 225.600 M236.400 216.801 C 236.400 217.432,237.099 217.603,237.534 217.079 C 237.854 216.694,237.765 216.553,237.180 216.508 C 236.751 216.476,236.400 216.608,236.400 216.801 M290.600 216.800 C 290.464 217.020,290.623 217.200,290.953 217.200 C 291.283 217.200,291.664 217.020,291.800 216.800 C 291.936 216.580,291.777 216.400,291.447 216.400 C 291.117 216.400,290.736 216.580,290.600 216.800 M197.653 217.848 C 197.231 218.325,197.215 218.573,197.582 218.933 C 197.945 219.290,198.027 219.263,197.929 218.818 C 197.858 218.498,198.055 218.228,198.367 218.218 C 198.678 218.208,199.008 217.975,199.100 217.700 C 199.334 216.999,198.312 217.104,197.653 217.848 M263.497 219.869 C 263.004 220.456,262.270 221.281,261.867 221.702 C 261.463 222.123,261.230 222.563,261.348 222.681 C 261.624 222.958,262.568 222.002,262.910 221.100 C 263.056 220.715,263.354 220.400,263.573 220.400 C 263.793 220.400,264.165 220.040,264.400 219.600 C 265.003 218.474,264.558 218.606,263.497 219.869 M197.767 227.200 C 197.767 231.490,197.826 233.245,197.898 231.100 C 197.970 228.955,197.970 225.445,197.898 223.300 C 197.826 221.155,197.767 222.910,197.767 227.200 M267.867 219.867 C 267.381 220.353,267.590 220.779,268.200 220.545 C 268.530 220.418,268.800 220.154,268.800 219.957 C 268.800 219.538,268.249 219.484,267.867 219.867 M230.800 221.000 C 230.800 221.330,230.980 221.600,231.200 221.600 C 231.420 221.600,231.600 221.330,231.600 221.000 C 231.600 220.670,231.420 220.400,231.200 220.400 C 230.980 220.400,230.800 220.670,230.800 221.000 M254.500 220.998 C 253.931 221.645,253.861 222.000,254.304 222.000 C 254.471 222.000,254.832 221.640,255.107 221.200 C 255.678 220.287,255.251 220.145,254.500 220.998 M226.909 222.009 C 226.876 222.453,227.018 222.713,227.224 222.585 C 227.679 222.304,227.727 221.200,227.285 221.200 C 227.112 221.200,226.943 221.564,226.909 222.009 M276.553 222.076 C 276.391 222.338,276.470 222.623,276.729 222.710 C 277.885 223.095,277.008 223.572,274.900 223.704 L 272.600 223.849 275.300 223.924 C 278.005 224.000,278.517 223.727,277.404 222.804 C 277.077 222.532,276.907 222.150,277.028 221.955 C 277.149 221.760,277.157 221.600,277.047 221.600 C 276.937 221.600,276.715 221.814,276.553 222.076 M238.159 222.467 C 238.045 222.650,238.323 222.800,238.776 222.800 C 239.229 222.800,239.600 222.650,239.600 222.467 C 239.600 222.283,239.322 222.133,238.982 222.133 C 238.643 222.133,238.272 222.283,238.159 222.467 M236.400 228.829 C 236.400 229.064,236.705 229.559,237.078 229.929 C 237.712 230.557,237.738 230.554,237.478 229.867 C 237.325 229.464,237.200 228.969,237.200 228.767 C 237.200 228.565,237.020 228.400,236.800 228.400 C 236.580 228.400,236.400 228.593,236.400 228.829 M278.396 230.596 C 278.896 231.198,279.600 231.069,279.600 230.376 C 279.600 230.169,279.218 230.000,278.751 230.000 C 278.045 230.000,277.985 230.100,278.396 230.596 M266.800 230.967 C 266.800 231.315,267.085 231.600,267.433 231.600 C 268.140 231.600,268.017 230.739,267.275 230.492 C 267.014 230.405,266.800 230.618,266.800 230.967 M265.371 234.800 C 265.371 235.240,265.513 235.600,265.686 235.600 C 265.859 235.600,266.000 235.240,266.000 234.800 C 266.000 234.360,265.859 234.000,265.686 234.000 C 265.513 234.000,265.371 234.360,265.371 234.800 " stroke="none" fill="#3cbcfc" fill-rule="evenodd"></path></g></svg>